<svg width="80" height="80" viewBox="0 0 80 80" fill="none" xmlns="http://www.w3.org/2000/svg">
<g id="Frame 45">
<path id="Vector" d="M35.8322 33.72C37.1266 33.72 38.1759 32.6706 38.1759 31.3763V15.6121L39.1977 16.2517C40.2952 16.9385 41.7413 16.6054 42.428 15.5085C43.1147 14.4112 42.782 12.9649 41.6849 12.2782L22.6362 0.355035C21.8707 -0.124342 20.8957 -0.11231 20.1493 0.355035L1.10047 12.2782C0.00343235 12.9651 -0.329382 14.4113 0.35734 15.5085C1.04422 16.6059 2.49063 16.9382 3.58767 16.2517L4.60939 15.6121V31.3761C4.60939 32.6705 5.65877 33.7199 6.95315 33.7199C8.21565 33.72 34.7423 33.72 35.8322 33.72ZM19.4046 29.0323V19.3773H23.3807V29.0323H19.4046ZM9.29691 12.6781L21.3927 5.10693L33.4886 12.6781V29.0323H28.0684V17.0335C28.0684 15.7392 27.019 14.6898 25.7246 14.6898H17.061C15.7666 14.6898 14.7172 15.7392 14.7172 17.0335V29.0323H9.29691V12.6781Z" fill="#878987"/>
<path id="Vector_2" d="M61.0073 42.0138C50.5347 42.0138 42.0147 50.5341 42.0147 61.007C42.0147 71.48 50.5347 80.0004 61.0073 80.0004C71.48 80.0004 80 71.48 80 61.007C80 50.5341 71.48 42.0138 61.0073 42.0138ZM61.0073 75.3127C53.1194 75.3127 46.7022 68.8953 46.7022 61.007C46.7022 53.1188 53.1194 46.7015 61.0073 46.7015C68.8953 46.7015 75.3125 53.1188 75.3125 61.007C75.3125 68.8953 68.8953 75.3127 61.0073 75.3127Z" fill="#878987"/>
<path id="Vector_3" d="M66.6531 24.326C66.6531 25.6204 67.7024 26.6698 68.9968 26.6698C70.2912 26.6698 71.3406 25.6204 71.3406 24.326V16.5618C71.3406 15.268 70.2896 14.218 68.9968 14.218H61.2329C59.9385 14.218 58.8891 15.2674 58.8891 16.5618C58.8891 17.8562 59.9385 18.9055 61.2329 18.9055H63.3387L38.132 44.113L31.6431 37.6241C30.7279 36.7087 29.2438 36.7087 28.3285 37.6241L9.34609 56.6069C8.43078 57.5223 8.43078 59.0063 9.34609 59.9215C10.2614 60.837 11.7453 60.8368 12.6606 59.9215L29.9857 42.5958L36.4746 49.0847C37.3898 50 38.8739 50 39.7892 49.0847L66.6531 22.2201V24.326Z" fill="#878987"/>
<path id="Vector_4" d="M63.3988 58.7076C62.3263 58.3276 60.5395 57.6787 59.6645 56.9951C59.4957 56.7826 59.6066 55.792 60.302 55.5826C61.182 55.3181 62.0093 55.4929 62.527 55.8826L62.5192 55.8748C62.5254 55.8795 62.5395 55.892 62.5582 55.9076C62.5535 55.9045 62.5473 55.8998 62.5395 55.8936C62.702 56.0498 63.6317 56.8405 65.0926 56.2529C66.7082 55.6045 66.4129 53.8201 66.3614 53.5545C66.3098 53.2889 66.052 52.7201 65.691 52.4232C65.202 51.9701 64.352 51.4264 63.2535 51.0889V51.0076C63.2535 49.7451 62.2567 48.717 61.0082 48.667C59.8588 48.5574 58.566 49.5609 58.566 51.0076V51.2264C56.7379 51.9264 55.3941 53.5592 55.0144 55.5734C54.6363 57.5781 55.3066 59.533 56.7613 60.6736C58.1479 61.7628 60.1595 62.5375 61.8363 63.1283C62.6395 63.4111 62.9801 63.9502 62.8488 64.7299C62.7488 65.3267 62.2488 66.3221 61.0082 66.3877C59.4109 66.4542 58.9726 66.2506 58.0801 65.6674C56.9973 64.958 55.5441 65.2627 54.8363 66.3455C54.1269 67.4283 54.4316 68.8814 55.5144 69.5894C56.6613 70.341 57.5785 70.7254 58.566 70.9144C58.566 72.5519 59.9234 73.4522 61.0082 73.3488C62.2567 73.2988 63.2535 72.2691 63.2535 71.0082V70.6472C65.4223 69.8269 67.0676 67.9097 67.4723 65.508C67.9801 62.4811 66.3442 59.7483 63.3988 58.7076Z" fill="#878987"/>
</g>
</svg>
