<svg width="80" height="80" viewBox="0 0 80 80" fill="none" xmlns="http://www.w3.org/2000/svg">
<g id="Group">
<path id="Vector" d="M78.4421 44.7475C75.9919 41.5968 71.5716 41.0004 68.387 43.2094L60.0045 48.8175C58.7887 46.6461 56.4661 45.1743 53.8051 45.1743H46.234C43.1611 42.3082 39.0682 40.6815 34.8469 40.6815C27.5694 40.6815 22.9652 44.102 20.2363 47.3433C19.7242 46.2997 18.5062 45.7734 17.3771 46.1594L1.5862 51.5569C0.362185 51.9751 -0.292164 53.3081 0.126569 54.5327L8.28984 78.4094C8.70873 79.6347 10.0412 80.2873 11.2655 79.8689L27.0563 74.4716C28.2803 74.0533 28.9347 72.7204 28.5159 71.4958L28.3844 71.1111L47.3519 70.5246C52.6925 70.5169 57.814 68.8767 62.1648 65.7804L76.8892 55.3069C80.3197 52.866 81.0256 48.0722 78.4421 44.7475ZM11.967 74.6757L5.32012 55.2342L16.6755 51.353L23.3224 70.7946L11.967 74.6757ZM74.172 51.4877L59.4472 61.9613C55.8842 64.4971 51.6888 65.8376 47.3146 65.8376C47.2904 65.8376 47.2663 65.8379 47.2422 65.8387C25.9202 66.498 27.4207 66.3861 26.8497 66.6225L22.1234 52.7985C23.8674 49.6974 27.5999 45.369 34.8468 45.369C38.0232 45.369 41.0476 46.5346 43.5935 49.1526C44.0505 49.6213 44.6664 49.8618 45.2714 49.8618H53.8051C55.1361 49.8618 56.2189 50.9439 56.2189 52.274C56.2189 53.593 55.1516 54.6863 53.8051 54.6863H41.2215C39.9272 54.6863 38.8779 55.7356 38.8779 57.0299C38.8779 58.3243 39.9272 59.3736 41.2215 59.3736H53.8051C57.1906 59.3736 59.9447 57.0287 60.697 53.994L71.0113 47.0936C71.0244 47.0847 71.0376 47.0758 71.0505 47.0667C72.2197 46.2497 73.8434 46.4699 74.7415 47.6244C75.686 48.8398 75.4277 50.5941 74.172 51.4877Z" fill="#878987"/>
<path id="Vector_2" d="M12.757 60.7822C14.0514 60.7822 15.1006 59.7329 15.1006 58.4385C15.1006 57.1441 14.0514 56.0948 12.757 56.0948C11.4626 56.0948 10.4133 57.1441 10.4133 58.4385C10.4133 59.7329 11.4626 60.7822 12.757 60.7822Z" fill="#878987"/>
<path id="Vector_3" d="M28.7435 17.2295L30.1436 16.3531V33.7579C30.1436 35.0522 31.1929 36.1015 32.4872 36.1015H63.736C65.0303 36.1015 66.0797 35.0522 66.0797 33.7579V16.3531L67.4798 17.2295C68.5771 17.9165 70.0233 17.5833 70.7098 16.4864C71.3965 15.3892 71.0638 13.943 69.9667 13.2563C69.7419 13.1155 49.4767 0.430104 49.3183 0.334796C48.5439 -0.130499 47.5927 -0.0987811 46.8681 0.355264L26.2564 13.2563C25.1592 13.9432 24.8266 15.3892 25.5133 16.4864C26.2006 17.5841 27.6471 17.9158 28.7435 17.2295ZM45.768 31.4141V20.5823H50.4553V31.4141H45.768ZM61.3923 31.4141H55.1426V18.2386C55.1426 16.9443 54.0933 15.895 52.7989 15.895H43.4243C42.13 15.895 41.0806 16.9443 41.0806 18.2386V31.4141H34.8309V13.4191L48.1116 5.10664L61.3923 13.4191V31.4141Z" fill="#878987"/>
</g>
</svg>
