<svg width="80" height="80" viewBox="0 0 80 80" fill="none" xmlns="http://www.w3.org/2000/svg">
<g id="profit 2" clip-path="url(#clip0_144_21)">
<g id="Group">
<path id="Vector" d="M19.5698 47.8126C19.5698 59.1069 28.7831 68.2955 40.1076 68.2955C51.4322 68.2955 60.6455 59.1069 60.6455 47.8126C60.6455 36.5182 51.4323 27.3296 40.1076 27.3296C28.7829 27.3296 19.5698 36.5182 19.5698 47.8126ZM40.1076 32.0171C48.8405 32.0171 55.9453 39.103 55.9453 47.8126C55.9453 56.5221 48.8405 63.608 40.1076 63.608C31.3747 63.608 24.2698 56.5221 24.2698 47.8126C24.2698 39.103 31.3747 32.0171 40.1076 32.0171Z" fill="#878987"/>
<path id="Vector_2" d="M78.8744 23.2666L41.2244 0.343281C40.4492 -0.12875 39.5027 -0.099375 38.7755 0.343281L24.7269 8.89672V2.34375C24.7269 1.04937 23.6747 0 22.3769 0H12.9769C11.6791 0 10.6269 1.04937 10.6269 2.34375V17.4817L1.12547 23.2666C0.426406 23.6922 0 24.45 0 25.2669V34.6419C0 36.4761 2.01922 37.5894 3.57453 36.6423L5.22797 35.6356V77.6562C5.22797 78.9506 6.28016 80 7.57797 80H72.4214C73.7192 80 74.7714 78.9506 74.7714 77.6562V35.6353L76.4255 36.6423C77.99 37.5953 80 36.468 80 34.6419V25.2669C80 24.45 79.5736 23.6922 78.8744 23.2666ZM15.3269 4.6875H20.0269V11.7584L15.3269 14.62V4.6875ZM70.0714 75.3125H9.92797V32.7741L40 14.4647L70.0716 32.7738V75.3125H70.0714ZM75.3 30.4652C74.9383 30.2448 41.3972 9.82297 41.2083 9.70953C40.4325 9.24656 39.4964 9.27906 38.7755 9.71828L4.7 30.4652V26.582L40 5.08969L75.3 26.5822V30.4652Z" fill="#878987"/>
<path id="Vector_3" d="M34.0964 56.9875C35.3907 57.8281 36.4118 58.2406 37.535 58.4297V58.7078C37.535 60.0225 38.6317 61.1076 39.9996 61.0484C41.2501 60.9922 42.2476 59.9656 42.2476 58.7078V58.1781C44.8332 57.2734 46.4857 54.9625 46.8706 52.6812C47.4093 49.4875 45.672 46.6047 42.546 45.5047C41.6931 45.2047 40.7898 44.8719 39.9996 44.5125C39.3618 44.2219 38.7964 43.9172 38.3864 43.5969C38.096 43.3692 38.1935 41.9925 39.164 41.7015C40.2648 41.369 41.2735 41.6395 41.8314 42.0953C41.8314 42.0953 43.0503 43.2687 44.6103 42.3047C46.1701 41.339 45.6848 39.6937 45.5528 39.3859C45.0975 38.3292 43.4109 37.492 42.2476 37.1625V36.9172C42.2476 35.6594 41.2501 34.6328 39.9996 34.5765C38.6228 34.517 37.535 35.6114 37.535 36.9172V37.3047C35.5337 38.0125 34.054 39.7594 33.6407 41.9312C33.2417 44.039 33.9454 46.089 35.4771 47.2844C36.6914 48.2312 38.3267 48.9515 39.9996 49.5719C41.0271 49.957 42.5081 50.2301 42.2225 51.9031C42.067 52.8234 41.3082 53.8172 39.9996 53.8859C38.1965 53.9525 37.711 53.7378 36.6773 53.064C35.5871 52.3562 34.1278 52.6594 33.4146 53.7437C32.7031 54.8265 33.0078 56.2797 34.0964 56.9875Z" fill="#878987"/>
</g>
</g>
<defs>
<clipPath id="clip0_144_21">
<rect width="80" height="80" fill="white"/>
</clipPath>
</defs>
</svg>
